HIERARCHY
ROOT Hips
{
	OFFSET 0.00000 0.00000 0.00000
	CHANNELS 6 Xposition Yposition Zposition Zrotation Yrotation Xrotation 
	JOINT LHipJoint
	{
		OFFSET 0 0 0
		CHANNELS 3 Zrotation Yrotation Xrotation
		JOINT LeftUpLeg
		{
			OFFSET 1.75344 -1.53157 0.77399
			CHANNELS 3 Zrotation Yrotation Xrotation
			JOINT LeftLeg
			{
				OFFSET 2.25415 -6.19323 0.00000
				CHANNELS 3 Zrotation Yrotation Xrotation
				JOINT LeftFoot
				{
					OFFSET 2.30342 -6.32861 0.00000
					CHANNELS 3 Zrotation Yrotation Xrotation
					JOINT LeftToeBase
					{
						OFFSET 0.10958 -0.30108 1.49206
						CHANNELS 3 Zrotation Yrotation Xrotation
						End Site
						{
							OFFSET 0.00000 -0.00000 0.77783
						}
					}
				}
			}
		}
	}
	JOINT RHipJoint
	{
		OFFSET 0 0 0
		CHANNELS 3 Zrotation Yrotation Xrotation
		JOINT RightUpLeg
		{
			OFFSET -1.81912 -1.53156 0.77399
			CHANNELS 3 Zrotation Yrotation Xrotation
			JOINT RightLeg
			{
				OFFSET -2.22882 -6.12365 0.00000
				CHANNELS 3 Zrotation Yrotation Xrotation
				JOINT RightFoot
				{
					OFFSET -2.21943 -6.09785 0.00000
					CHANNELS 3 Zrotation Yrotation Xrotation
					JOINT RightToeBase
					{
						OFFSET -0.18931 -0.52012 1.59379
						CHANNELS 3 Zrotation Yrotation Xrotation
						End Site
						{
							OFFSET -0.00000 -0.00000 0.84686
						}
					}
				}
			}
		}
	}
	JOINT LowerBack
	{
		OFFSET 0 0 0
		CHANNELS 3 Zrotation Yrotation Xrotation
		JOINT Spine
		{
			OFFSET -0.00200 1.66634 -0.14248
			CHANNELS 3 Zrotation Yrotation Xrotation
			JOINT Spine1
			{
				OFFSET -0.00875 1.64542 0.09514
				CHANNELS 3 Zrotation Yrotation Xrotation
				JOINT Neck
				{
					OFFSET 0 0 0
					CHANNELS 3 Zrotation Yrotation Xrotation
					JOINT Neck1
					{
						OFFSET 0.02257 1.59605 0.00839
						CHANNELS 3 Zrotation Yrotation Xrotation
						JOINT Head
						{
							OFFSET -0.10214 1.57530 -0.23335
							CHANNELS 3 Zrotation Yrotation Xrotation
							End Site
							{
								OFFSET -0.03588 1.60717 -0.08062
							}
						}
					}
				}
				JOINT LeftShoulder
				{
					OFFSET 0 0 0
					CHANNELS 3 Zrotation Yrotation Xrotation
					JOINT LeftArm
					{
						OFFSET 2.54983 1.10186 0.40078
						CHANNELS 3 Zrotation Yrotation Xrotation
						JOINT LeftForeArm
						{
							OFFSET 4.28840 -0.00000 0.00000
							CHANNELS 3 Zrotation Yrotation Xrotation
							JOINT LeftHand
							{
								OFFSET 3.06552 -0.00000 -0.00000
								CHANNELS 3 Zrotation Yrotation Xrotation
								JOINT LeftFingerBase
								{
									OFFSET 0 0 0
									CHANNELS 3 Zrotation Yrotation Xrotation
									JOINT LeftHandIndex1
									{
										OFFSET 0.75304 -0.00000 0.00000
										CHANNELS 3 Zrotation Yrotation Xrotation
										End Site
										{
											OFFSET 0.60712 -0.00000 0.00000
										}
									}
								}
								JOINT LThumb
								{
									OFFSET 0 0 0
									CHANNELS 3 Zrotation Yrotation Xrotation
									End Site
									{
										OFFSET 0.61639 -0.00000 0.61639
									}
								}
							}
						}
					}
				}
				JOINT RightShoulder
				{
					OFFSET 0 0 0
					CHANNELS 3 Zrotation Yrotation Xrotation
					JOINT RightArm
					{
						OFFSET -2.60909 1.35448 0.21802
						CHANNELS 3 Zrotation Yrotation Xrotation
						JOINT RightForeArm
						{
							OFFSET -4.52172 -0.00000 -0.00000
							CHANNELS 3 Zrotation Yrotation Xrotation
							JOINT RightHand
							{
								OFFSET -2.89140 -0.00000 0.00000
								CHANNELS 3 Zrotation Yrotation Xrotation
								JOINT RightFingerBase
								{
									OFFSET 0 0 0
									CHANNELS 3 Zrotation Yrotation Xrotation
									JOINT RightHandIndex1
									{
										OFFSET -0.68054 -0.00000 0.00000
										CHANNELS 3 Zrotation Yrotation Xrotation
										End Site
										{
											OFFSET -0.54867 -0.00000 0.00000
										}
									}
								}
								JOINT RThumb
								{
									OFFSET 0 0 0
									CHANNELS 3 Zrotation Yrotation Xrotation
									End Site
									{
										OFFSET -0.55705 -0.00000 0.55705
									}
								}
							}
						}
					}
				}
			}
		}
	}
}
MOTION
Frames: 12
Frame Time: .0083333
9.1254 15.5214 22.5076 0 0 0 0 0 0 -21 0 0 0 0 0 0 0 0 0 0 0 0 0 0 21 0 0 0 0 0 0 0 0 0 0 0 0 0 0 0 0 0 0 0 0 0 0 -16 0 0 21 0 0 11 0 0 0 -8 0 0 0 0 0 0 0 0 0 0 0 0 0 0 0 0 0 0 0 0 8 0 0 0 0 0 0 0 0 0 0 0 0 0 0 0 0 0
9.1254 15.5214 22.5076 -179.0120 1.3704 178.6650 0.0000 0.0000 0.0000 -23.7328 -17.3179 0.7587 1.5350 7.8217 22.1737 0.8336 9.4849 -23.1639 4.5255 -12.8286 -38.7303 0.0000 0.0000 0.0000 25.8267 14.5321 5.9549 -0.6704 -5.2359 14.5827 0.6096 -19.5381 -22.1229 -0.0001 -0.0683 0.1876 1.8285 1.7624 8.3807 -0.0828 2.6462 -4.2080 -1.5439 1.1970 -9.0932 -5.5395 -1.6881 -5.6543 5.1888 -2.6440 11.9779 2.3501 -1.3678 4.6502 -0.0000 -0.0000 0.0000 -86.3450 13.6661 38.5487 20.4940 -31.2330 -5.7853 -0.0000 -0.0000 13.2064 4.2341 -36.1102 -2.4983 -7.1250 0.0000 -0.0000 -15.6336 -5.0336 17.5876 -0.0000 -0.0000 0.0000 85.9548 -16.3099 44.3437 -21.6859 32.6202 -6.4157 0.0000 0.0000 22.6226 -0.1584 -53.6311 0.1276 7.1250 -0.0000 -0.0000 74.3868 -71.5737 -54.9492
9.1248 15.5214 22.5079 -179.0040 1.5143 178.6750 0.0000 0.0000 0.0000 -23.7194 -17.2452 0.7298 1.5362 7.8247 22.1830 0.8458 9.4531 -23.2429 4.4816 -12.7751 -38.5322 0.0000 0.0000 0.0000 25.8201 14.5609 5.9382 -0.6690 -5.2307 14.5677 0.6190 -19.4813 -21.9155 -0.0001 0.0550 -0.1512 1.8456 1.7998 8.3866 -0.0861 2.6977 -4.1989 -1.5650 1.2207 -9.0839 -5.5364 -1.6958 -5.5970 5.1669 -2.6397 11.8064 2.3434 -1.3639 4.5877 -0.0000 -0.0000 0.0000 -86.3915 13.6280 38.3018 20.5159 -31.2589 -5.7967 -0.0000 -0.0000 12.9406 3.7820 -35.8754 -2.2185 -7.1250 0.0000 -0.0000 -15.8596 -4.7593 17.7918 -0.0000 -0.0000 0.0000 86.0403 -16.2908 43.9640 -21.6630 32.5940 -6.4033 0.0000 0.0000 22.8526 -1.1254 -53.7282 0.9074 7.1250 -0.0000 -0.0000 74.2024 -71.9399 -55.2156
9.1253 15.5216 22.5080 -179.0290 1.5453 178.7020 0.0000 0.0000 0.0000 -23.7299 -17.1864 0.7101 1.5295 7.8084 22.1338 0.8559 9.3714 -23.2607 4.4265 -12.7073 -38.2823 0.0000 0.0000 0.0000 25.7851 14.5677 5.8710 -0.6751 -5.2538 14.6340 0.5952 -19.3752 -21.9804 -0.0003 0.1151 -0.3162 1.8261 1.8232 8.3929 -0.1149 2.7240 -4.1985 -1.5890 1.2335 -9.0857 -5.4404 -1.6839 -5.7317 5.1619 -2.6270 11.8615 2.3259 -1.3513 4.6253 0.0000 0.0000 0.0000 -86.3823 13.6051 38.1182 20.5639 -31.3157 -5.8216 -0.0000 -0.0000 12.7964 3.9492 -35.6135 -2.3021 -7.1250 0.0000 -0.0000 -15.7589 -4.5260 17.6103 0.0000 0.0000 0.0000 86.1617 -16.3321 43.5069 -21.6595 32.5901 -6.4015 0.0000 0.0000 23.2254 -2.1170 -53.6469 1.7053 7.1250 -0.0000 -0.0000 73.4863 -72.2698 -54.9361
9.1257 15.5220 22.5086 -179.0510 1.5272 178.6990 0.0000 0.0000 0.0000 -23.7550 -17.2365 0.7138 1.5291 7.8073 22.1302 0.8436 9.5122 -23.2747 4.4095 -12.6863 -38.2053 0.0000 0.0000 0.0000 25.7595 14.5579 5.8450 -0.6778 -5.2642 14.6636 0.5706 -19.3089 -22.1248 -0.0011 0.2116 -0.5813 1.8379 1.8460 8.4370 -0.1594 2.7530 -4.2037 -1.6494 1.2446 -9.1135 -5.2674 -1.6906 -5.7536 5.0977 -2.6412 11.8249 2.2765 -1.3531 4.6157 0.0000 -0.0000 0.0000 -86.3786 13.6151 37.8805 20.5765 -31.3307 -5.8282 -0.0000 -0.0000 12.8328 4.4073 -35.4720 -2.5609 -7.1250 0.0000 -0.0000 -15.5095 -4.4400 17.2884 0.0000 -0.0000 0.0000 86.3093 -16.4103 43.0145 -21.7053 32.6424 -6.4262 0.0000 0.0000 23.5057 -2.2685 -53.7522 1.8298 7.1250 -0.0000 -0.0000 73.7343 -72.3514 -55.2656
9.1265 15.5207 22.5084 -179.0720 1.4861 178.6700 0.0000 0.0000 0.0000 -23.7910 -17.2925 0.7779 1.5308 7.8116 22.1432 0.8485 9.5107 -23.3159 4.3455 -12.6065 -37.9128 0.0000 0.0000 0.0000 25.7456 14.5345 5.8602 -0.6797 -5.2715 14.6846 0.5657 -19.3122 -22.1840 -0.0008 0.1845 -0.5068 1.8372 1.8404 8.4497 -0.1794 2.7424 -4.1849 -1.6685 1.2386 -9.0997 -5.1878 -1.6946 -5.6937 5.0479 -2.6413 11.6977 2.2483 -1.3511 4.5652 0.0000 0.0000 0.0000 -86.5065 13.6225 37.3005 20.5556 -31.3060 -5.8173 -0.0000 -0.0000 13.0370 4.4830 -35.4289 -2.6023 -7.1250 0.0000 -0.0000 -15.4673 -4.4069 17.2295 0.0000 0.0000 0.0000 86.4026 -16.4457 42.5927 -21.7639 32.7092 -6.4578 0.0000 0.0000 23.7454 -2.1603 -53.9629 1.7472 7.1250 -0.0000 -0.0000 74.4272 -72.3668 -55.9364
9.1268 15.5186 22.5092 -179.0660 1.4688 178.6420 0.0000 0.0000 0.0000 -23.7881 -17.2494 0.8079 1.5348 7.8213 22.1726 0.8753 9.2848 -23.3549 4.2662 -12.5064 -37.5479 0.0000 0.0000 0.0000 25.7599 14.5146 5.8886 -0.6799 -5.2723 14.6868 0.5731 -19.3457 -22.1653 -0.0001 0.0774 -0.2127 1.8190 1.8027 8.4814 -0.1422 2.6924 -4.1715 -1.6118 1.2163 -9.1082 -5.2212 -1.6510 -5.6470 5.0417 -2.5720 11.6008 2.2563 -1.3176 4.5244 0.0000 -0.0000 0.0000 -86.7597 13.7048 36.4419 20.6046 -31.3638 -5.8428 -0.0000 -0.0000 13.2961 4.2876 -35.5980 -2.4989 -7.1250 0.0000 -0.0000 -15.5792 -4.5478 17.3994 0.0000 -0.0000 0.0000 86.4073 -16.4531 42.1803 -21.8476 32.8044 -6.5031 0.0000 0.0000 23.9323 -2.3188 -54.0644 1.8778 7.1250 -0.0000 -0.0000 74.6672 -72.4482 -56.2598
9.1268 15.5177 22.5106 -179.0190 1.4548 178.6150 0.0000 0.0000 0.0000 -23.7366 -17.1903 0.7660 1.5414 7.8372 22.2206 0.8678 9.2972 -23.3013 4.3949 -12.6682 -38.1387 0.0000 0.0000 0.0000 25.8259 14.5171 5.9408 -0.6771 -5.2616 14.6563 0.5748 -19.3693 -22.1892 -0.0001 -0.0700 0.1925 1.8328 1.7760 8.5550 -0.0950 2.6638 -4.1767 -1.5681 1.2021 -9.1601 -5.2174 -1.6185 -5.5877 5.0052 -2.5190 11.5027 2.2479 -1.2924 4.4813 -0.0000 -0.0000 0.0000 -86.9739 13.7658 35.6838 20.6465 -31.4134 -5.8646 -0.0000 -0.0000 13.3258 3.6016 -35.6710 -2.1020 -7.1250 0.0000 -0.0000 -15.9451 -4.5442 17.8399 -0.0000 -0.0000 0.0000 86.4154 -16.4833 41.6595 -21.8816 32.8430 -6.5215 0.0000 0.0000 24.3511 -3.3845 -54.1023 2.7427 7.1250 -0.0000 -0.0000 74.3190 -72.8378 -56.3907
9.1278 15.5183 22.5120 -178.9870 1.4026 178.6340 0.0000 0.0000 0.0000 -23.6865 -17.2551 0.6928 1.5476 7.8522 22.2662 0.8523 9.4037 -23.2576 4.4705 -12.7615 -38.4822 0.0000 0.0000 0.0000 25.8681 14.5194 5.9604 -0.6721 -5.2424 14.6011 0.5700 -19.3821 -22.2645 -0.0013 -0.2312 0.6351 1.8550 1.7878 8.5858 -0.1060 2.6824 -4.1840 -1.5967 1.2089 -9.1841 -5.0627 -1.6304 -5.5386 4.9813 -2.5432 11.3981 2.2139 -1.2984 4.4402 -0.0000 -0.0000 0.0000 -87.0347 13.7707 35.2150 20.7095 -31.4877 -5.8975 -0.0000 -0.0000 13.1300 2.9067 -35.4821 -1.6882 -7.1250 0.0000 -0.0000 -16.3036 -4.2917 18.2076 -0.0000 -0.0000 0.0000 86.5276 -16.5116 41.0531 -21.7541 32.6981 -6.4525 0.0000 0.0000 25.3411 -5.7695 -53.8130 4.6620 7.1250 -0.0000 -0.0000 72.3585 -73.6272 -55.4684
9.1282 15.5203 22.5137 -178.9880 1.4120 178.6840 0.0000 0.0000 0.0000 -23.6622 -17.3379 0.6278 1.5497 7.8572 22.2813 0.8582 9.4020 -23.3067 4.3820 -12.6520 -38.0795 0.0000 0.0000 0.0000 25.8427 14.4979 5.8975 -0.6689 -5.2303 14.5666 0.5815 -19.3885 -22.1525 -0.0004 -0.1354 0.3721 1.8352 1.7995 8.5763 -0.0988 2.6967 -4.1929 -1.5801 1.2174 -9.1889 -5.1704 -1.6126 -5.5467 5.0222 -2.5028 11.3071 2.2465 -1.2780 4.4135 -0.0000 0.0000 0.0000 -87.1284 13.8703 34.7681 20.9046 -31.7169 -5.9997 -0.0000 -0.0000 12.9055 3.0114 -35.1488 -1.7347 -7.1250 0.0000 -0.0000 -16.2350 -3.9831 18.0423 -0.0000 0.0000 0.0000 86.5520 -16.4598 40.6958 -21.9952 32.9716 -6.5832 0.0000 0.0000 24.3643 -7.0707 -55.2531 5.8194 7.1250 -0.0000 -0.0000 76.8558 -74.4036 -60.6315
9.1281 15.5225 22.5141 -178.9680 1.4930 178.7240 0.0000 0.0000 0.0000 -23.6157 -17.3183 0.5662 1.5500 7.8581 22.2840 0.8672 9.3876 -23.3717 4.3378 -12.5968 -37.8775 0.0000 0.0000 0.0000 25.8444 14.5270 5.8362 -0.6674 -5.2246 14.5502 0.5953 -19.3820 -21.9909 -0.0002 0.0846 -0.2324 1.8415 1.8076 8.5467 -0.0713 2.7108 -4.1963 -1.5556 1.2254 -9.1757 -5.1623 -1.6093 -5.5869 4.9218 -2.4798 11.2795 2.2153 -1.2693 4.4097 -0.0000 -0.0000 0.0000 -87.2538 13.9527 34.2405 21.0718 -31.9121 -6.0879 -0.0000 -0.0000 12.6743 3.3869 -34.7503 -1.9320 -7.1250 0.0000 -0.0000 -16.0198 -3.6392 17.6921 -0.0000 -0.0000 0.0000 86.5066 -16.4265 40.4033 -22.0484 33.0317 -6.6122 0.0000 0.0000 24.3947 -9.0482 -56.1204 7.5313 7.1250 -0.0000 -0.0000 79.6276 -75.2347 -64.2728
9.1276 15.5226 22.5145 -178.9540 1.5411 178.7310 0.0000 0.0000 0.0000 -23.5968 -17.2727 0.5439 1.5523 7.8636 22.3005 0.8641 9.3973 -23.3537 4.4075 -12.6838 -38.1962 0.0000 0.0000 0.0000 25.8592 14.5872 5.8408 -0.6665 -5.2209 14.5398 0.5814 -19.3369 -22.0599 -0.0001 0.0779 -0.2141 1.8839 1.8221 8.5513 -0.0904 2.7338 -4.1955 -1.6035 1.2333 -9.1740 -5.0797 -1.5997 -5.5452 4.9032 -2.4708 11.2140 2.1967 -1.2623 4.3810 0.0000 0.0000 0.0000 -87.3251 13.9346 33.6259 21.1011 -31.9462 -6.1034 -0.0000 -0.0000 12.5216 3.5104 -34.7419 -2.0022 -7.1250 0.0000 -0.0000 -15.9535 -3.6439 17.6142 0.0000 0.0000 0.0000 86.5909 -16.3828 39.9263 -22.0702 33.0562 -6.6241 0.0000 0.0000 24.6720 -10.5373 -56.8880 8.8558 7.1250 -0.0000 -0.0000 82.4986 -75.8200 -67.7664
